<?xml version="1.0" encoding="UTF-8" standalone="no"?>
<svg
   vwo-op-1669146271597=""
   vwo-op-applied=""
   viewBox="0 0 128 128"
   preserveAspectRatio="xMinYMid"
   class="vwo_loaded vwo_loaded_188"
   width="128"
   height="128"
   version="1.1"
   id="svg32"
   sodipodi:docname="Trigger_Favicon.svg"
   xml:space="preserve"
   inkscape:version="1.2 (dc2aedaf03, 2022-05-15)"
   inkscape:export-filename="..\bin\icons\Trigger+_Favicon_128.png"
   inkscape:export-xdpi="96"
   inkscape:export-ydpi="96"
   xmlns:inkscape="http://www.inkscape.org/namespaces/inkscape"
   xmlns:sodipodi="http://sodipodi.sourceforge.net/DTD/sodipodi-0.dtd"
   xmlns="http://www.w3.org/2000/svg"
   xmlns:svg="http://www.w3.org/2000/svg"
   xmlns:rdf="http://www.w3.org/1999/02/22-rdf-syntax-ns#"
   xmlns:cc="http://creativecommons.org/ns#"
   xmlns:dc="http://purl.org/dc/elements/1.1/"><title
     id="title1109">Trigger for NinjaOne favicon</title><g
     id="g5014"
     inkscape:label="Favicon"><rect
       style="fill:#ffffff;fill-opacity:1;stroke:none;stroke-width:2.01573;stroke-linecap:round;paint-order:markers stroke fill"
       id="rect5083"
       width="127.99915"
       height="127.99915"
       x="0.00042722549"
       y="0.00042722549"
       ry="18.478933"
       inkscape:label="Background" /><g
       id="OvHZFw.tif"
       transform="matrix(0.92197693,0,0,0.92197693,4.5220374,8.6290909)"
       inkscape:label="Icon">
		<path
   fill-rule="evenodd"
   clip-rule="evenodd"
   fill="#c73a63"
   d="m 60.467,50.345 c -5.367,9.022 -10.509,17.759 -15.758,26.43 -1.348,2.226 -2.015,4.039 -0.938,6.869 2.973,7.817 -1.221,15.424 -9.104,17.489 C 27.233,103.081 19.99,98.195 18.515,90.236 17.208,83.191 22.675,76.285 30.442,75.184 31.093,75.091 31.757,75.08 32.851,74.998 36.657,68.616 40.556,62.079 44.666,55.186 37.235,47.797 32.812,39.159 33.791,28.456 34.483,20.89 37.458,14.352 42.896,8.993 53.311,-1.269 69.2,-2.931 81.463,4.946 93.241,12.512 98.635,27.25 94.037,39.864 90.57,38.924 87.079,37.976 83.241,36.935 84.685,29.922 83.617,23.624 78.887,18.229 75.762,14.667 71.752,12.8 67.192,12.112 58.051,10.731 49.076,16.604 46.413,25.576 43.39,35.759 47.965,44.077 60.467,50.345 Z"
   id="path1397"
   style="fill:#13d5e1;fill-opacity:1"
   inkscape:label="Left" /><path
   fill-rule="evenodd"
   clip-rule="evenodd"
   fill="#4b4b4b"
   d="m 75.794,39.676 c 3.781,6.67 7.62,13.441 11.425,20.15 19.232,-5.95 33.732,4.696 38.934,16.094 6.283,13.768 1.988,30.075 -10.352,38.569 -12.666,8.72 -28.684,7.23 -39.906,-3.971 2.86,-2.394 5.734,-4.799 8.805,-7.368 11.084,7.179 20.778,6.841 27.975,-1.66 6.137,-7.252 6.004,-18.065 -0.311,-25.165 -7.288,-8.193 -17.05,-8.443 -28.85,-0.578 -4.895,-8.684 -9.875,-17.299 -14.615,-26.046 -1.598,-2.948 -3.363,-4.658 -6.965,-5.282 -6.016,-1.043 -9.9,-6.209 -10.133,-11.997 -0.229,-5.724 3.143,-10.898 8.414,-12.914 5.221,-1.997 11.348,-0.385 14.86,4.054 2.87,3.627 3.782,7.709 2.272,12.182 -0.42,1.247 -0.964,2.454 -1.553,3.932 z"
   id="path1399"
   style="fill:#2b3749;fill-opacity:1"
   inkscape:label="Right" /><path
   fill-rule="evenodd"
   clip-rule="evenodd"
   fill="#4a4a4a"
   d="m 84.831,94.204 c -7.605,0 -15.238,0 -23.152,0 -2.219,9.127 -7.012,16.496 -15.271,21.182 -6.42,3.642 -13.34,4.877 -20.705,3.688 C 12.143,116.887 1.055,104.68 0.079,90.934 -1.026,75.363 9.677,61.522 23.943,58.413 c 0.985,3.577 1.98,7.188 2.965,10.756 -13.089,6.678 -17.619,15.092 -13.956,25.613 3.225,9.259 12.385,14.334 22.331,12.371 10.157,-2.004 15.278,-10.445 14.653,-23.992 9.629,0 19.266,-0.1 28.896,0.049 3.76,0.059 6.663,-0.331 9.496,-3.646 4.664,-5.455 13.248,-4.963 18.271,0.189 5.133,5.265 4.887,13.737 -0.545,18.78 -5.241,4.866 -13.521,4.606 -18.424,-0.637 -1.008,-1.081 -1.802,-2.364 -2.799,-3.692 z"
   id="path1401"
   style="fill:#2b3749;fill-opacity:1"
   inkscape:label="Bottom" />
	</g><path
       d="m 100.61236,4.9791351 0.40656,-0.02419 c 1.76167,2.428e-4 3.24442,1.3187511 3.45054,3.068323 l 0.0245,0.406559 0,15.7650779 h 17.96024 c 1.76168,2.33e-4 3.24444,1.318742 3.45056,3.068321 l 0.0245,7.571616 c -2.3e-4,1.761682 -1.31875,3.244449 -3.06833,3.450563 l -0.40655,0.02419 h -17.9603 v 25.384856 c -2.3e-4,1.761677 -1.31874,3.244441 -3.06832,3.450559 l -8.715061,0.02419 c -1.761673,-2.41e-4 -3.244429,-1.31875 -3.450545,-3.068323 l -0.02451,-0.406559 V 51.001884 l -8.5,-7.817434 -3.626937,-4.875 -12.126937,0 c -1.761676,-2.36e-4 -3.244437,-1.318745 -3.450554,-3.068321 l -0.02451,-7.571619 c 2.33e-4,-1.76168 1.318745,-3.244445 3.068326,-3.45056 l 0.406547,-0.02419 24.253884,0 0,-15.7650659 c 2.33e-4,-1.7616795 9.62725,-3.2444439 11.376827,-3.450559 l 0.40656,-0.02419 z"
       fill="#212121"
       id="path419-9"
       style="display:inline;fill:#ffffff;fill-opacity:1;stroke-width:3.47488"
       inkscape:label="+"
       sodipodi:nodetypes="ccccccccccccccccccccccccccccc" /><path
       d="M 96.319132,0.02419 96.725689,0 a 3.4748848,3.4748848 0 0 1 3.450541,3.068323 l 0.0245,0.406559 v 24.324201 h 24.3242 a 3.4748848,3.4748848 0 0 1 3.45056,3.068321 L 128,31.273965 a 3.4748848,3.4748848 0 0 1 -3.06833,3.450563 l -0.40655,0.02419 h -24.32426 v 24.324196 a 3.4748848,3.4748848 0 0 1 -3.068322,3.450559 l -0.406556,0.02419 A 3.4748848,3.4748848 0 0 1 93.275438,59.47934 l -0.02451,-0.406559 V 34.748573 H 68.926737 a 3.4748848,3.4748848 0 0 1 -3.450554,-3.068321 l -0.02451,-0.406564 a 3.4748848,3.4748848 0 0 1 3.068325,-3.45056 l 0.406547,-0.02419 H 93.250737 V 3.474749 A 3.4748848,3.4748848 0 0 1 96.319062,0.02419 L 96.725618,0 Z"
       fill="#212121"
       id="path419"
       style="display:inline;fill:#13d5e1;fill-opacity:1;stroke-width:3.47488"
       inkscape:label="+" /></g><sodipodi:namedview
     id="namedview34"
     pagecolor="#505050"
     bordercolor="#ffffff"
     borderopacity="1"
     inkscape:showpageshadow="0"
     inkscape:pageopacity="0"
     inkscape:pagecheckerboard="1"
     inkscape:deskcolor="#505050"
     showgrid="false"
     inkscape:zoom="4"
     inkscape:cx="43.375"
     inkscape:cy="61.5"
     inkscape:window-width="1920"
     inkscape:window-height="1009"
     inkscape:window-x="1912"
     inkscape:window-y="-8"
     inkscape:window-maximized="1"
     inkscape:current-layer="g5014" /><defs
     id="defs6"><inkscape:path-effect
       effect="powerclip"
       id="path-effect5008"
       is_visible="true"
       lpeversion="1"
       inverse="true"
       flatten="false"
       hide_clip="false"
       message="Use fill-rule evenodd on &lt;b&gt;fill and stroke&lt;/b&gt; dialog if no flatten result after convert clip to paths." /><style
       id="style2">.ninjaone-logo-1{fill:#13D5E1;}.ninjaone-logo-2{fill:#2b3749;}</style><style
       class="darkreader darkreader--sync"
       media="screen"
       id="style4" /><filter
       id="mask-powermask-path-effect4912_inverse"
       inkscape:label="filtermask-powermask-path-effect4912"
       style="color-interpolation-filters:sRGB"
       height="100"
       width="100"
       x="-50"
       y="-50"><feColorMatrix
         id="mask-powermask-path-effect4912_primitive1"
         values="1"
         type="saturate"
         result="fbSourceGraphic" /><feColorMatrix
         id="mask-powermask-path-effect4912_primitive2"
         values="-1 0 0 0 1 0 -1 0 0 1 0 0 -1 0 1 0 0 0 1 0 "
         in="fbSourceGraphic" /></filter><clipPath
       clipPathUnits="userSpaceOnUse"
       id="clipPath5004"><path
         d="m 97.228118,5.3280979 0.384457,-0.023001 c 1.665896,2.193e-4 3.068045,1.2470424 3.262955,2.901497 l 0.023,0.3844568 V 28.529475 h 18.75903 c 1.6659,2.16e-4 3.06805,1.24704 3.26296,2.901497 l 0.023,6.510959 c -2.2e-4,1.6659 -1.24705,3.068048 -2.90151,3.262952 l -0.38445,0.023 h -18.75903 v 19.938425 c -2.2e-4,1.665895 -1.247044,3.068041 -2.901498,3.262951 l -8.074244,0.023 c -1.665895,-2.2e-4 -3.068041,-1.247042 -3.262952,-2.901495 l -0.023,-0.384456 V 41.227884 H 67.082305 c -1.665896,-2.2e-4 -3.068042,-1.247043 -3.262952,-2.901497 l -0.023,-6.510959 c 2.2e-4,-1.665896 1.247043,-3.068042 2.901498,-3.262952 l 0.384456,-0.023 H 86.636835 V 8.5910499 c 2.2e-4,-1.6658954 1.247042,-3.0680417 2.901496,-3.262952 l 8.074244,-0.023001 z"
         fill="#212121"
         id="path5006"
         style="display:block;fill:#545454;fill-opacity:1;stroke-width:3.28595"
         sodipodi:nodetypes="ccccccccccccccccccccccccccc" /></clipPath></defs><metadata
     id="metadata1107"><rdf:RDF><cc:Work
         rdf:about=""><dc:title>Trigger for NinjaOne favicon</dc:title><dc:creator><cc:Agent><dc:title>Johan Aantjes</dc:title></cc:Agent></dc:creator><dc:publisher><cc:Agent><dc:title>TargetCrafter</dc:title></cc:Agent></dc:publisher><cc:license
           rdf:resource="http://creativecommons.org/licenses/by/4.0/" /></cc:Work><cc:License
         rdf:about="http://creativecommons.org/licenses/by/4.0/"><cc:permits
           rdf:resource="http://creativecommons.org/ns#Reproduction" /><cc:permits
           rdf:resource="http://creativecommons.org/ns#Distribution" /><cc:requires
           rdf:resource="http://creativecommons.org/ns#Notice" /><cc:requires
           rdf:resource="http://creativecommons.org/ns#Attribution" /><cc:permits
           rdf:resource="http://creativecommons.org/ns#DerivativeWorks" /></cc:License></rdf:RDF></metadata></svg>
