<svg width="24" height="24" viewBox="0 0 24 24" xmlns="http://www.w3.org/2000/svg">
  <path
     d="m 20.485213,3.5147871 c 4.686383,4.6863827 4.686383,12.2840419 0,16.9704259 -4.686384,4.686383 -12.2840432,4.686383 -16.9704259,0 -4.6863829,-4.686384 -4.6863829,-12.2840432 0,-16.9704259 4.6863827,-4.6863829 12.2840419,-4.6863829 16.9704259,0 z M 19.212431,4.787569 A 10.199918,10.199918 0 1 0 4.787569,19.212431 10.199918,10.199918 0 0 0 19.212431,4.787569 Z m -2.969825,2.9698244 a 0.8999927,0.8999927 0 0 1 0,1.2727824 L 13.272782,12 l 2.969824,2.969825 a 0.8999927,0.8999927 0 0 1 -1.272781,1.272781 L 12,13.272782 9.0301758,16.242606 A 0.8999927,0.8999927 0 0 1 7.7573934,14.969825 L 10.727218,12 7.7573934,9.0301758 A 0.89999307,0.89999307 0 0 1 9.0301758,7.7573934 L 12,10.727218 14.969825,7.7573934 a 0.8999927,0.8999927 0 0 1 1.272781,0 z"
     fill="currentColor"
     id="path3268" />
</svg>
