<?xml version="1.0" encoding="UTF-8" standalone="no"?>

<svg
  width="410"
  height="138"
  viewBox="0 0 108.47917 36.512499"
  version="1.1"
  id="svg5"
  xml:space="preserve"
  sodipodi:docname="Katana_logo_Dark.svg"
  xmlns:sodipodi="http://sodipodi.sourceforge.net/DTD/sodipodi-0.dtd"
  xmlns="http://www.w3.org/2000/svg"
  xmlns:svg="http://www.w3.org/2000/svg"><sodipodi:namedview

     id="defs2" /><path
     id="path3890-5"
     style="display:inline;font-weight:bold;font-size:44.0973px;font-family:inter;-inkscape-font-specification:'inter Bold';text-align:center;letter-spacing:-2.64583px;text-anchor:middle;fill:#ffffff;fill-opacity:1;stroke-width:0.5;stroke-linecap:square;stroke-linejoin:round;paint-order:markers stroke fill"
     d="m 38.870496,32.869307 c 0.06235,1.37993 0.40092,2.55062 1.02061,3.50832 0.699459,1.05441 1.64939,1.85337 2.849955,2.39623 1.200564,0.53242 2.567957,0.7984 4.102592,0.7984 1.190125,0 2.239358,-0.15655 3.147612,-0.46973 0.908253,-0.32364 1.686446,-0.76744 2.333707,-1.33119 0.647262,-0.57418 1.164025,-1.23685 1.550293,-1.98851 h 0.187586 v 3.3352 h 6.326745 v -9.2413 l -6.633187,0.92243 c -0.04223,0.73426 -0.252509,1.39864 -0.633036,1.99264 -0.428028,0.66814 -1.017743,1.20061 -1.769401,1.59732 -0.751658,0.38627 -1.61851,0.57929 -2.599841,0.57929 -1.02309,0 -1.868656,-0.23508 -2.536796,-0.70487 -0.657701,-0.48022 -0.986503,-1.1743 -0.986503,-2.08256 0,-0.0688 0.0095,-0.13158 0.01344,-0.19792 z m 25.653732,-3.56774 v 3.30213 c -0.01044,1.57639 0.318363,2.88147 0.986503,3.915 0.66814,1.03354 1.602365,1.79551 2.802929,2.28617 1.211005,0.49063 2.620454,0.70494 4.228166,0.64234 0.866494,-0.0313 1.602632,-0.11998 2.208134,-0.26614 0.605502,-0.13571 1.075144,-0.25578 1.409214,-0.36018 l -1.049029,-4.96404 c -0.167035,0.0313 -0.407179,0.0779 -0.72037,0.14056 -0.313191,0.0522 -0.626287,0.0786 -0.939477,0.0786 -0.448907,0 -0.845599,-0.0679 -1.190109,-0.20361 -0.33407,-0.13572 -0.5955,-0.3708 -0.783414,-0.70486 -0.187915,-0.34452 -0.281637,-0.8248 -0.281637,-1.44074 v -3.35277 z m 13.796576,-1.91874 c -0.52031,0.46306 -0.95475,1.01209 -1.29966,1.65054 -0.49067,0.90826 -0.73588,2.03044 -0.73588,3.36672 0,1.58683 0.34451,2.91269 1.03353,3.97754 0.69946,1.05441 1.64939,1.85337 2.84996,2.39623 1.20056,0.53242 2.56795,0.7984 4.10259,0.7984 1.19012,0 2.23935,-0.15655 3.14761,-0.46973 0.90825,-0.32364 1.68593,-0.76744 2.33319,-1.33119 0.64726,-0.57418 1.16403,-1.23685 1.55029,-1.98851 h 0.18811 v 3.3352 h 6.32623 v -14.44615 z m 12.87208,0.58601 v 2.5523 c 0,0.84561 -0.2138,1.60251 -0.64182,2.27066 -0.42803,0.66814 -1.01775,1.20061 -1.7694,1.59732 -0.75166,0.38627 -1.61851,0.57929 -2.59984,0.57929 -1.0231,0 -1.86866,-0.23508 -2.5368,-0.70487 -0.6577,-0.48022 -0.9865,-1.1743 -0.9865,-2.08256 0,-0.62637 0.16161,-1.1482 0.48524,-1.56579 0.32363,-0.42803 0.77808,-0.76747 1.36271,-1.01803 0.58462,-0.25055 1.26857,-0.43293 2.05155,-0.54777 0.36539,-0.0522 0.7722,-0.10993 1.22111,-0.1726 0.44891,-0.0731 0.89779,-0.15109 1.34669,-0.23461 0.44891,-0.094 0.85118,-0.19325 1.20613,-0.29765 0.36539,-0.11484 0.65214,-0.23997 0.86093,-0.37569 z m 9.161706,-3.64991 v 14.7991 h 6.67092 v -13.90561 c 0.007,-0.68692 0.0962,-1.30511 0.26458,-1.85829 z m 14.8854,-2.07016 c 0.41886,0.73643 0.62531,1.65069 0.61753,2.74454 v 14.12472 h 6.67091 v -15.31483 c 0,-0.90667 -0.0827,-1.75042 -0.24494,-2.53421 z m 9.8857,-1.37511 c -0.11029,0.32846 -0.20375,0.66768 -0.27905,1.01906 l 6.16965,0.50127 c 0.22967,-0.79342 0.69983,-1.45154 1.40973,-1.97353 0.7099,-0.53242 1.66489,-0.7984 2.86546,-0.7984 1.13793,0 2.01491,0.27156 2.63085,0.81442 0.62638,0.54287 0.93947,1.3099 0.93947,2.30167 v 0.0941 c 0,0.51155 -0.19301,0.89811 -0.57929,1.1591 -0.38626,0.261 -1.0074,0.45909 -1.86345,0.5948 -0.85606,0.12527 -1.98382,0.26105 -3.38274,0.40721 -1.19012,0.11483 -2.32801,0.31344 -3.41374,0.59531 -1.07529,0.28188 -2.03535,0.69933 -2.88097,1.25264 -0.84561,0.5533 -1.51386,1.28386 -2.00452,2.19211 -0.49067,0.90826 -0.73588,2.03044 -0.73588,3.36672 0,1.58683 0.34451,2.91269 1.03353,3.97754 0.69946,1.05441 1.64939,1.85337 2.84996,2.39623 1.20056,0.53242 2.56796,0.7984 4.10259,0.7984 1.19012,0 2.23936,-0.15655 3.14761,-0.46973 0.90826,-0.32364 1.68593,-0.76744 2.33319,-1.33119 0.64726,-0.57418 1.16403,-1.23685 1.55029,-1.98851 h 0.18811 v 3.3352 h 6.32623 v -16.2233 c 0,-1.43024 -0.27662,-2.65679 -0.82993,-3.67988 -0.18591,-0.34727 -0.39651,-0.67133 -0.62838,-0.97617 z m 13.78314,7.09518 v 2.5523 c 0,0.84561 -0.21379,1.60251 -0.64182,2.27066 -0.42803,0.66814 -1.01827,1.20061 -1.76992,1.59732 -0.75166,0.38627 -1.61799,0.57929 -2.59932,0.57929 -1.0231,0 -1.86866,-0.23508 -2.5368,-0.70487 -0.6577,-0.48022 -0.9865,-1.1743 -0.9865,-2.08256 0,-0.62637 0.16161,-1.1482 0.48524,-1.56579 0.32363,-0.42803 0.77808,-0.76747 1.36271,-1.01803 0.58462,-0.25055 1.26806,-0.43293 2.05103,-0.54777 0.36539,-0.0522 0.77273,-0.10993 1.22164,-0.1726 0.44891,-0.0731 0.89778,-0.15109 1.34668,-0.23461 0.44891,-0.094 0.85067,-0.19325 1.20561,-0.29765 0.3654,-0.11484 0.65266,-0.23997 0.86145,-0.37569 z"
     transform="matrix(0.79478624,0,0,0.79375262,-7.1882407,-5.2345722)" /><path
     id="path3789-9"
     style="display:inline;font-weight:bold;font-size:44.0973px;font-family:inter;-inkscape-font-specification:'inter Bold';text-align:center;letter-spacing:-2.64583px;text-anchor:middle;fill:#13d5e1;fill-opacity:1;stroke-width:0.5;stroke-linecap:square;stroke-linejoin:round;paint-order:markers stroke fill"
     d="m 35.434014,33.347317 -7.35149,1.02268 3.163631,4.74803 h 8.11165 z m -16.308049,2.26808 -6.780465,0.9431 v 2.55953 h 6.780465 z"
     transform="matrix(0.79478624,0,0,0.79375262,-7.1882407,-5.2345722)" /><path
     id="path3875-4"
     style="display:inline;font-weight:bold;font-size:44.0973px;font-family:inter;-inkscape-font-specification:'inter Bold';text-align:center;letter-spacing:-2.64583px;text-anchor:middle;fill:#ffffff;fill-opacity:1;stroke-width:0.5;stroke-linecap:square;stroke-linejoin:round;paint-order:markers stroke fill"
     d="m 35.793564,32.418437 6.365794,-0.94184 c 0.02698,-0.53735 0.17557,-0.99776 0.460369,-1.37194 0.319882,-0.43084 0.770841,-0.77423 1.353255,-1.02988 0.582414,-0.25564 1.264752,-0.44398 2.046696,-0.56565 0.36492,-0.0554 0.771218,-0.11667 1.219561,-0.18325 0.448251,-0.077 0.896428,-0.15892 1.344589,-0.24635 0.44807,-0.0979 0.849459,-0.20067 1.203485,-0.30817 0.364373,-0.11802 0.650017,-0.24565 0.857618,-0.38319 l 0.02227,2.55221 c 8.19e-4,0.0938 -0.0019,0.18638 -0.0064,0.27808 l 6.624885,-0.98028 -0.06093,-6.98173 c -0.01248,-1.43019 -0.299794,-2.65428 -0.862004,-3.6725 -0.562302,-1.02865 -1.326559,-1.86759 -2.292714,-2.51688 -0.955715,-0.64939 -2.051199,-1.1252 -3.285768,-1.42763 -1.224131,-0.30252 -2.504182,-0.4479 -3.840411,-0.43624 -1.920831,0.0168 -3.609347,0.32384 -5.065747,0.92119 -1.446052,0.58682 -2.623821,1.42193 -3.533094,2.5052 -0.909366,1.07282 -1.514387,2.34118 -1.81481,3.80541 l 6.174305,0.44741 c 0.22274,-0.7954 0.686623,-1.45759 1.39194,-1.98576 0.705226,-0.53859 1.657864,-0.8129 2.858382,-0.82337 1.137884,-0.01 2.017199,0.25396 2.637854,0.79143 0.631095,0.53738 0.950873,1.30165 0.959528,2.29338 l 8.21e-4,0.0941 c 0.0045,0.51153 -0.185179,0.89976 -0.569156,1.16411 -0.383976,0.26436 -1.003353,0.46786 -1.858191,0.61104 -0.854929,0.13273 -1.98095,0.27835 -3.37854,0.43671 -1.189077,0.12521 -2.325194,0.33374 -3.40842,0.62508 -1.072788,0.29125 -2.029682,0.71707 -2.870438,1.27773 -0.840753,0.56066 -1.502601,1.29703 -1.985322,2.20952 -0.482721,0.91251 -0.718126,2.03679 -0.706465,3.37302 0.0014,0.15966 0.0086,0.31477 0.01701,0.46909 z m 25.621621,-3.79148 6.662561,-0.98577 -0.07241,-8.29736 4.525654,-0.0395 -0.04373,-5.01088 -4.525654,0.0395 -0.05029,-5.762729 -6.670656,0.05821 0.05029,5.762739 -3.288564,0.0287 0.04373,5.01088 3.288563,-0.0287 z m 13.779307,-2.03906 19.471572,-2.88098 -0.0155,-1.77708 c -0.0125,-1.43019 -0.29979,-2.65428 -0.86201,-3.6725 -0.5623,-1.02865 -1.32656,-1.86759 -2.29271,-2.51688 -0.95572,-0.64939 -2.05068,-1.1252 -3.28526,-1.42763 -1.22412,-0.30252 -2.50418,-0.44791 -3.84041,-0.43625 -1.92083,0.0168 -3.60934,0.32384 -5.06574,0.9212 -1.44605,0.58682 -2.62382,1.42193 -3.5331,2.50519 -0.909358,1.07283 -1.514383,2.34119 -1.814807,3.80541 l 6.173787,0.44742 c 0.22274,-0.7954 0.68714,-1.4576 1.39246,-1.98576 0.70522,-0.5386 1.65786,-0.8129 2.85838,-0.82338 1.13789,-0.01 2.01719,0.25397 2.63786,0.79143 0.63109,0.53739 0.95086,1.30166 0.95952,2.29339 l 8.2e-4,0.0941 c 0.004,0.51153 -0.18518,0.89976 -0.56915,1.16411 -0.38398,0.26436 -1.00336,0.46786 -1.85819,0.61104 -0.85493,0.13273 -1.98095,0.27834 -3.37854,0.4367 -1.18908,0.12522 -2.32571,0.33375 -3.40894,0.62509 -1.07278,0.29125 -2.02917,0.71706 -2.86993,1.27773 -0.249741,0.16655 -0.481948,0.35011 -0.700102,0.5477 z m 22.006212,-3.25606 6.926816,-1.02529 c 0.0825,-0.27986 0.18392,-0.5446 0.30782,-0.79077 0.37978,-0.74457 0.90732,-1.31308 1.5825,-1.70525 0.68562,-0.39227 1.47729,-0.5922 2.37506,-0.60004 1.33624,-0.0117 2.38907,0.39662 3.15842,1.22512 0.19764,0.21015 0.36913,0.44294 0.51615,0.69625 l 7.03468,-1.04121 c -0.17935,-0.83012 -0.44777,-1.59159 -0.80852,-2.28178 -0.70084,-1.3511 -1.67555,-2.3868 -2.9242,-3.10671 -1.24865,-0.71991 -2.70837,-1.07247 -4.37865,-1.05789 -1.78512,0.0156 -3.30035,0.44122 -4.54585,1.27686 -1.24562,0.82519 -2.12861,1.93942 -2.64881,3.34293 l -0.28162,0.002 -0.037,-4.24351 -6.357516,0.0555 z m 24.740086,-3.66131 18.92501,-2.80023 c -0.46347,-0.59838 -1.01431,-1.11511 -1.65584,-1.54623 -0.95571,-0.6494 -2.05068,-1.12521 -3.28525,-1.42764 -1.22413,-0.30252 -2.50419,-0.4479 -3.84042,-0.43624 -1.92082,0.0168 -3.60986,0.32384 -5.06626,0.9212 -1.44604,0.58682 -2.6233,1.42192 -3.53257,2.50519 -0.69075,0.8149 -1.20527,1.74323 -1.54467,2.78395 z"
     transform="matrix(0.79478624,0,0,0.79375262,-7.1882407,-5.2345722)" /><path
     style="display:inline;font-weight:bold;font-size:44.0973px;font-family:inter;-inkscape-font-specification:'inter Bold';text-align:center;letter-spacing:-2.64583px;text-anchor:middle;fill:#13d5e1;fill-opacity:1;stroke-width:0.5;stroke-linecap:square;stroke-linejoin:round;paint-order:markers stroke fill"
     d="m 9.044244,6.829212 0.257528,29.509745 6.771977,-1.00224 -0.04897,-5.61081 3.299539,-4.10053 5.694776,8.38783 7.342285,-1.08679 -8.222252,-11.86854 11.775834,-14.463162 -8.12736,0.07093 -11.417063,14.240402 -0.422697,0.004 -0.123395,-14.139692 z"
     id="path3787-5"
     transform="matrix(0.79478624,0,0,0.79375262,-7.1882407,-5.2345722)" /><path
     id="path328"
     d="m 143.41423,47.172473 q -0.40543,0 -0.63067,0.253904 -0.22114,0.253905 -0.27847,0.687999 h 1.81419 q -0.0287,-0.462761 -0.28257,-0.700285 -0.24981,-0.241618 -0.62248,-0.241618 z m 0,-0.962381 q 0.55695,0 1.00333,0.208857 0.44638,0.208857 0.73715,0.659333 0.26209,0.397238 0.3399,0.921428 0.0451,0.307142 0.0369,0.884571 h -3.05505 q 0.0246,0.671618 0.42181,0.941903 0.24162,0.167905 0.58152,0.167905 0.36039,0 0.58562,-0.204762 0.12286,-0.110571 0.21705,-0.307142 h 1.19171 q -0.045,0.397237 -0.41361,0.806761 -0.57334,0.651142 -1.60534,0.651142 -0.85181,0 -1.50295,-0.548761 -0.65114,-0.548762 -0.65114,-1.785522 0,-1.158952 0.58562,-1.777332 0.58971,-0.618381 1.52752,-0.618381 z m 0.0819,0 z m -4.49247,0.01229 q 0.6921,0 1.13029,0.364476 0.44228,0.360381 0.44228,1.199904 v 3.005902 h -1.19581 v -2.715141 q 0,-0.35219 -0.0942,-0.540571 -0.172,-0.343999 -0.65523,-0.343999 -0.59381,0 -0.81495,0.503714 -0.11467,0.26619 -0.11467,0.679808 v 2.416189 h -1.16305 v -4.455615 h 1.12619 v 0.651142 q 0.22524,-0.344 0.42591,-0.495523 0.36038,-0.270286 0.91323,-0.270286 z m -0.43,-0.01229 z m -5.80294,3.68162 q 0.74942,0 1.18761,-0.552856 0.44229,-0.552857 0.44229,-1.57257 0,-1.015619 -0.44229,-1.568475 -0.43819,-0.556952 -1.18761,-0.556952 -0.74943,0 -1.19581,0.552856 -0.44638,0.552857 -0.44638,1.572571 0,1.019713 0.44638,1.57257 0.44638,0.552856 1.19581,0.552856 z m 2.89123,-2.125426 q 0,1.625808 -0.91324,2.489902 -0.6839,0.70438 -1.97799,0.70438 -1.2941,0 -1.978,-0.70438 -0.91733,-0.864094 -0.91733,-2.489902 0,-1.65857 0.91733,-2.489903 0.6839,-0.70438 1.978,-0.70438 1.29409,0 1.97799,0.70438 0.91324,0.831333 0.91324,2.489903 z m -2.89123,-3.194283 z m -4.96752,4.050187 q -0.11057,0.06962 -0.22524,0.114666 -0.11057,0.04095 -0.30714,0.07781 l -0.2621,0.04914 q -0.36857,0.06552 -0.52828,0.159714 -0.27029,0.159715 -0.27029,0.495524 0,0.298952 0.16381,0.434095 0.1679,0.131047 0.40543,0.131047 0.37676,0 0.69209,-0.221142 0.31943,-0.221143 0.33172,-0.806762 z m -0.70848,-0.544667 q 0.32352,-0.04095 0.46276,-0.102381 0.24981,-0.106476 0.24981,-0.331714 0,-0.27438 -0.19247,-0.376761 -0.18838,-0.106476 -0.55696,-0.106476 -0.41361,0 -0.58561,0.204762 -0.12286,0.151523 -0.16381,0.409523 h -1.12619 q 0.0369,-0.585619 0.32762,-0.96238 0.46276,-0.589714 1.58895,-0.589714 0.73304,0 1.30228,0.290762 0.56924,0.290761 0.56924,1.097523 v 2.047617 q 0,0.212952 0.008,0.515999 0.0123,0.229333 0.0696,0.311238 0.0573,0.0819 0.172,0.135143 v 0.172 h -1.26952 q -0.0532,-0.135143 -0.0737,-0.253905 -0.0205,-0.118762 -0.0328,-0.270285 -0.24162,0.262095 -0.55695,0.44638 -0.37676,0.217048 -0.85181,0.217048 -0.6061,0 -1.00333,-0.344 -0.39315,-0.348095 -0.39315,-0.982856 0,-0.823142 0.63476,-1.191713 0.3481,-0.200667 1.02381,-0.286667 z m 0.0614,-1.867427 z m -2.92397,-0.413618 h -1.16714 v -1.077047 h 1.16714 z m -1.72819,5.85209 q 0.0983,0.0082 0.13924,0.0082 0.041,0.0041 0.0737,0.0041 0.17199,0 0.25799,-0.086 0.0901,-0.0819 0.0901,-0.323524 v -4.90201 h 1.16714 v 4.922472 q 0,0.675714 -0.26619,0.999237 -0.26619,0.323524 -1.04428,0.323524 -0.0532,0 -0.15972,-0.0041 -0.10238,-0.0041 -0.258,-0.0082 z m -2.1418,-5.426186 q 0.69209,0 1.13028,0.364476 0.44229,0.360381 0.44229,1.199904 v 3.005902 h -1.19581 v -2.715141 q 0,-0.35219 -0.0942,-0.540571 -0.172,-0.343999 -0.65524,-0.343999 -0.59381,0 -0.81495,0.503714 -0.11467,0.26619 -0.11467,0.679808 v 2.416189 h -1.16305 v -4.455615 h 1.12619 v 0.651142 q 0.22524,-0.344 0.42591,-0.495523 0.36038,-0.270286 0.91324,-0.270286 z m -0.43,-0.01229 z m -3.17381,-0.413614 h -1.18352 v -1.077047 h 1.18352 z m -1.18352,0.53238 h 1.18352 v 4.463806 h -1.18352 z m -5.99952,-1.57257 h 1.32276 l 2.4039,4.213996 v -4.213996 h 1.17533 v 6.036376 h -1.26133 l -2.46533,-4.287711 v 4.287711 h -1.17533 z m 2.49809,-0.01229 z m -5.74152,1.478384 q 0.0328,0 0.0532,0.0041 0.0246,0 0.10238,0.0041 v 1.195808 q -0.11057,-0.01229 -0.19657,-0.01638 -0.086,-0.0041 -0.13924,-0.0041 -0.70438,0 -0.946,0.458666 -0.13514,0.258 -0.13514,0.794476 v 2.133617 h -1.17533 v -4.463806 h 1.1139 v 0.778095 q 0.27029,-0.446381 0.47095,-0.61019 0.32762,-0.274381 0.85181,-0.274381 z m -5.54495,3.74714 q 0.51191,0 0.78629,-0.364476 0.27438,-0.364476 0.27438,-1.036095 0,-0.671618 -0.27438,-1.031999 -0.27438,-0.364475 -0.78629,-0.364475 -0.5119,0 -0.790376,0.364475 -0.274381,0.360381 -0.274381,1.031999 0,0.671619 0.274381,1.036095 0.278476,0.364476 0.790376,0.364476 z m 2.28515,-1.400571 q 0,0.982857 -0.56515,1.683142 -0.56514,0.69619 -1.7159,0.69619 -1.150761,0 -1.715904,-0.69619 -0.565142,-0.700285 -0.565142,-1.683142 0,-0.966475 0.565142,-1.67495 0.565143,-0.708476 1.715904,-0.708476 1.15076,0 1.7159,0.708476 0.56515,0.708475 0.56515,1.67495 z m -2.28105,-2.358855 z m -3.153331,-1.515236 q 0.110571,0 0.200667,0.0082 0.0901,0.0041 0.245714,0.01638 v 0.950094 q -0.09829,-0.01229 -0.331714,-0.01638 -0.229333,-0.0082 -0.319429,0.10238 -0.086,0.106476 -0.086,0.237524 0,0.131047 0,0.376762 h 0.765809 v 0.823142 h -0.765809 v 3.599711 h -1.163046 v -3.599711 h -0.651142 v -0.823142 h 0.638856 V 46.08314 q 0,-0.716666 0.241619,-0.986951 0.253905,-0.401333 1.224475,-0.401333 z"
     style="font-weight:bold;font-size:8.38704px;font-family:helvetica;-inkscape-font-specification:'helvetica Bold';text-align:center;text-anchor:middle;display:inline;fill:#ffffff;stroke-width:0.095097;stroke-linecap:round;paint-order:markers stroke fill"
     transform="matrix(0.79478624,0,0,0.79375262,-7.1882407,-5.2345722)" /></svg>