<?xml version="1.0" encoding="UTF-8" standalone="no"?>
<svg
  vwo-op-1669146271597=""
  vwo-op-applied=""
  viewBox="0 0 432.9157 137.87703"
  preserveAspectRatio="xMinYMid"
  class="vwo_loaded vwo_loaded_188"
  width="432.91571"
  height="137.87703"
  version="1.1"
  id="svg32"
  sodipodi:docname="Trigger+_logo_Light.svg"
  xml:space="preserve"
  inkscape:version="1.2 (dc2aedaf03, 2022-05-15)"
  inkscape:export-filename="..\bin\popup\Trigger+_Logo_Dark.png"
  inkscape:export-xdpi="225"
  inkscape:export-ydpi="225"
  xmlns:inkscape="http://www.inkscape.org/namespaces/inkscape"
  xmlns:sodipodi="http://sodipodi.sourceforge.net/DTD/sodipodi-0.dtd"
  xmlns="http://www.w3.org/2000/svg"
  xmlns:svg="http://www.w3.org/2000/svg"><title
     id="title928">Trigger for NinjaOne logo</title><sodipodi:namedview
     id="namedview34"
     pagecolor="#505050"
     bordercolor="#ffffff"
     borderopacity="1"
     inkscape:showpageshadow="0"
     inkscape:pageopacity="0"
     inkscape:pagecheckerboard="1"
     inkscape:deskcolor="#505050"
     showgrid="false"
     inkscape:zoom="2.0000001"
     inkscape:cx="155.49999"
     inkscape:cy="49.999998"
     inkscape:window-width="1920"
     inkscape:window-height="1009"
     inkscape:window-x="1912"
     inkscape:window-y="-8"
     inkscape:window-maximized="1"
     inkscape:current-layer="svg32" /><defs
     id="defs6" /><path
     fill="#13d5e1"
     d="m 60.467,50.345 c -5.367,9.022 -10.509,17.759 -15.758,26.43 -1.348,2.226 -2.015,4.039 -0.938,6.869 2.973,7.817 -1.221,15.424 -9.104,17.489 C 27.233,103.081 19.99,98.195 18.515,90.236 17.208,83.191 22.675,76.285 30.442,75.184 31.093,75.091 31.757,75.08 32.851,74.998 36.657,68.616 40.556,62.079 44.666,55.186 37.235,47.797 32.812,39.159 33.791,28.456 34.483,20.89 37.458,14.352 42.896,8.993 53.311,-1.269 69.2,-2.931 81.463,4.946 93.241,12.512 98.635,27.25 94.037,39.864 90.57,38.924 87.079,37.976 83.241,36.935 84.685,29.922 83.617,23.624 78.887,18.229 75.762,14.667 71.752,12.8 67.192,12.112 58.051,10.731 49.076,16.604 46.413,25.576 43.39,35.759 47.965,44.077 60.467,50.345 Z"
     id="path351"
     inkscape:label="Left"
     transform="matrix(1.0086007,0,0,1.0086007,-5.8662655e-4,0.00336963)" /><path
     id="path355"
     inkscape:label="Bottom"
     transform="matrix(1.0086007,0,0,1.0086007,-5.8662655e-4,0.00336963)"
     d="m 84.831,94.204 c -7.605,0 -15.238,0 -23.152,0 -2.219,9.127 -7.012,16.496 -15.271,21.182 -6.42,3.642 -13.34,4.877 -20.705,3.688 C 12.143,116.887 1.055,104.68 0.079,90.934 -1.026,75.363 9.677,61.522 23.943,58.413 c 0.985,3.577 1.98,7.188 2.965,10.756 -13.089,6.678 -17.619,15.092 -13.956,25.613 3.225,9.259 12.385,14.334 22.331,12.371 10.157,-2.004 15.278,-10.445 14.653,-23.992 9.629,0 19.266,-0.1 28.896,0.049 3.76,0.059 6.663,-0.331 9.496,-3.646 4.664,-5.455 13.248,-4.963 18.271,0.189 5.133,5.265 4.887,13.737 -0.545,18.78 -5.241,4.866 -13.521,4.606 -18.424,-0.637 -1.008,-1.081 -1.802,-2.364 -2.799,-3.692 z M 75.794,39.676 c 3.781,6.67 7.62,13.441 11.425,20.15 19.232,-5.95 33.732,4.696 38.934,16.094 6.283,13.768 1.988,30.075 -10.352,38.569 -12.666,8.72 -28.684,7.23 -39.906,-3.971 2.86,-2.394 5.734,-4.799 8.805,-7.368 11.084,7.179 20.778,6.841 27.975,-1.66 6.137,-7.252 6.004,-18.065 -0.311,-25.165 -7.288,-8.193 -17.05,-8.443 -28.85,-0.578 -4.895,-8.684 -9.875,-17.299 -14.615,-26.046 -1.598,-2.948 -3.363,-4.658 -6.965,-5.282 -6.016,-1.043 -9.9,-6.209 -10.133,-11.997 -0.229,-5.724 3.143,-10.898 8.414,-12.914 5.221,-1.997 11.348,-0.385 14.86,4.054 2.87,3.627 3.782,7.709 2.272,12.182 -0.42,1.247 -0.964,2.454 -1.553,3.932 z"
     fill="#ffffff" /><path
     id="path2032"
     d="m 123.03465,47.120716 q 0.35773,0 0.58131,0.04471 0.26829,0 1.11789,0.04472 v 13.056991 q -1.20732,-0.134148 -2.14635,-0.178863 -0.93903,-0.04472 -1.52034,-0.04472 -7.6911,0 -10.32933,5.008161 -1.47562,2.81709 -1.47562,8.67485 V 97.02346 H 96.428801 V 48.283324 h 12.162679 v 8.495987 q 2.95123,-4.874013 5.1423,-6.662642 3.57726,-2.995953 9.30087,-2.995953 z M 71.052076,57.494763 q -4.426856,0 -6.886221,2.772375 -2.414649,2.772374 -3.040669,7.512241 H 80.93425 q -0.31301,-5.052877 -3.085384,-7.646389 -2.727659,-2.638227 -6.79679,-2.638227 z m 0,-10.508195 q 6.081338,0 10.955352,2.280502 4.874013,2.280502 8.048829,7.199231 2.861807,4.337425 3.711405,10.061038 0.491873,3.353679 0.402442,9.658595 H 60.812176 q 0.268294,7.333379 4.605719,10.284616 2.638228,1.833345 6.349632,1.833345 3.934984,0 6.394349,-2.235786 1.341471,-1.207325 2.369933,-3.353679 h 13.012275 q -0.491873,4.337425 -4.516288,8.808997 -6.260201,7.109799 -17.528563,7.109799 -9.30087,0 -16.41067,-5.991906 -7.109799,-5.991907 -7.109799,-19.496055 0,-12.654549 6.394348,-19.406623 6.439064,-6.752074 16.678964,-6.752074 z m 0.894314,0 z M 23.004462,86.559982 q 4.471573,0 7.556957,-3.353679 3.085385,-3.398395 3.085385,-10.776489 0,-6.930937 -2.951238,-10.55291 -2.906521,-3.621974 -7.825251,-3.621974 -6.707358,0 -9.256154,6.304917 -1.341472,3.353679 -1.341472,8.272408 0,4.247994 1.430903,7.556957 2.593512,6.17077 9.30087,6.17077 z M 19.829646,47.120716 q 3.666689,0 6.394348,1.117893 4.650435,1.922776 7.512241,7.065084 V 48.283324 H 46.12249 V 94.51938 q 0,9.43502 -3.174816,14.2196 -5.455318,8.22769 -20.926957,8.22769 -9.345586,0 -15.2480614,-3.66669 -5.90247519,-3.66669 -6.52849528,-10.95535 H 14.106034 q 0.536589,2.23579 1.743913,3.21953 2.056923,1.74392 6.930937,1.74392 6.886221,0 9.211438,-4.60572 1.520335,-2.951241 1.520335,-9.926893 v -3.130101 q -1.833345,3.130101 -3.934984,4.695151 -3.800836,2.906522 -9.882174,2.906522 -9.390301,0 -15.0244823,-6.573211 -5.58946513,-6.617927 -5.58946513,-17.886288 0,-10.865921 5.41060223,-18.244015 5.4106023,-7.422809 15.3374922,-7.422809 z m 4.069131,-0.134148 z m -50.641118,39.573414 q 4.471572,0 7.556957,-3.353679 3.085385,-3.398395 3.085385,-10.776489 0,-6.930937 -2.951238,-10.55291 -2.906522,-3.621974 -7.825251,-3.621974 -6.707358,0 -9.256154,6.304917 -1.341472,3.353679 -1.341472,8.272408 0,4.247994 1.430903,7.556957 2.593512,6.17077 9.30087,6.17077 z m -3.174816,-39.439266 q 3.666689,0 6.394348,1.117893 4.650435,1.922776 7.512241,7.065084 V 48.283324 H -3.6243131 V 94.51938 q 0,9.43502 -3.1748162,14.2196 -5.4553177,8.22769 -20.9269577,8.22769 -9.345585,0 -15.248061,-3.66669 -5.902475,-3.66669 -6.528495,-10.95535 h 13.861874 q 0.536588,2.23579 1.743913,3.21953 2.056923,1.74392 6.930936,1.74392 6.886222,0 9.211439,-4.60572 1.520335,-2.951241 1.520335,-9.926893 v -3.130101 q -1.833345,3.130101 -3.934984,4.695151 -3.800836,2.906522 -9.882174,2.906522 -9.390302,0 -15.024483,-6.573211 -5.589465,-6.617927 -5.589465,-17.886288 0,-10.865921 5.410603,-18.244015 5.410602,-7.422809 15.337492,-7.422809 z m 4.069131,-0.134148 z M -53.818279,42.470281 H -66.741122 V 30.710046 h 12.922843 z m -12.922843,5.813043 h 12.922843 V 97.02346 h -12.922843 z m -3.153026,-1.162608 q 0.357726,0 0.581305,0.04471 0.268294,0 1.117893,0.04472 v 13.056991 q -1.207325,-0.134148 -2.146355,-0.178863 -0.93903,-0.04472 -1.520334,-0.04472 -7.691104,0 -10.329332,5.008161 -1.475619,2.81709 -1.475619,8.67485 V 97.02346 H -96.500002 V 48.283324 h 12.162677 v 8.495987 q 2.951237,-4.874013 5.142307,-6.662642 3.577258,-2.995953 9.30087,-2.995953 z M -92.185503,31.112487 V 42.783291 H -111.90514 V 97.02346 h -13.86187 V 42.783291 h -19.80906 V 31.112487 Z"
     transform="matrix(1.0086007,0,0,1.0086007,267.45229,-9.4582389)"
     inkscape:label="Trigger"
     fill="#ffffff" /><path
     id="path2055"
     d="m 118.9897,131.3777 q -1.09926,0 -1.70995,0.68843 -0.5996,0.68842 -0.75505,1.86541 h 4.9189 q -0.0777,-1.25471 -0.76615,-1.89872 -0.67732,-0.65512 -1.68775,-0.65512 z m 0,-2.60934 q 1.51009,0 2.72039,0.56628 1.21029,0.56628 1.99865,1.78768 0.71063,1.07705 0.9216,2.49831 0.12214,0.83278 0.0999,2.39838 h -8.2833 q 0.0666,1.821 1.14368,2.55384 0.65511,0.45524 1.57671,0.45524 0.97712,0 1.58782,-0.55518 0.3331,-0.29979 0.58849,-0.83277 h 3.23115 q -0.12214,1.07705 -1.12147,2.18741 -1.5545,1.76548 -4.35261,1.76548 -2.30955,0 -4.07503,-1.48789 -1.76547,-1.48788 -1.76547,-4.84117 0,-3.14232 1.58781,-4.81897 1.59892,-1.67664 4.14165,-1.67664 z m 0.22207,0 z m -12.18066,0.0333 q 1.87651,0 3.06459,0.98822 1.19919,0.97712 1.19919,3.25336 v 8.15005 h -3.24225 v -7.3617 q 0,-0.95491 -0.25539,-1.46567 -0.46635,-0.93271 -1.77657,-0.93271 -1.61003,0 -2.20962,1.36575 -0.3109,0.72173 -0.3109,1.8432 v 6.55113 h -3.15343 v -12.08073 h 3.05349 v 1.76547 q 0.6107,-0.9327 1.15478,-1.34354 0.97712,-0.73283 2.47611,-0.73283 z m -1.16588,-0.0333 z m -15.733817,9.98213 q 2.031961,0 3.220048,-1.49898 1.19919,-1.49899 1.19919,-4.26379 0,-2.7537 -1.19919,-4.25269 -1.188087,-1.51009 -3.220048,-1.51009 -2.031961,0 -3.242255,1.49899 -1.210294,1.49899 -1.210294,4.26379 0,2.7648 1.210294,4.26379 1.210294,1.49898 3.242255,1.49898 z m 7.839151,-5.76277 q 0,4.40813 -2.476106,6.75099 -1.854303,1.90983 -5.363045,1.90983 -3.508742,0 -5.363045,-1.90983 -2.48721,-2.34286 -2.48721,-6.75099 0,-4.49697 2.48721,-6.751 1.854303,-1.90982 5.363045,-1.90982 3.508742,0 5.363045,1.90982 2.476106,2.25403 2.476106,6.751 z m -7.839151,-8.66082 z m -13.468686,10.98147 q -0.299798,0.18876 -0.610699,0.3109 -0.299797,0.11104 -0.832771,0.21097 l -0.710631,0.13325 q -0.999325,0.17765 -1.432366,0.43304 -0.732839,0.43304 -0.732839,1.34353 0,0.81057 0.444145,1.17699 0.455248,0.35531 1.099258,0.35531 1.021532,0 1.87651,-0.59959 0.866082,-0.5996 0.899393,-2.18741 z m -1.920925,-1.47678 q 0.877185,-0.11103 1.254708,-0.27759 0.677321,-0.28869 0.677321,-0.89939 0,-0.74394 -0.52187,-1.02153 -0.510766,-0.2887 -1.510092,-0.2887 -1.121465,0 -1.587816,0.55518 -0.333109,0.41084 -0.444145,1.11037 h -3.053494 q 0.09993,-1.58782 0.88829,-2.60935 1.254708,-1.59892 4.308201,-1.59892 1.987547,0 3.53095,0.78835 1.543402,0.78836 1.543402,2.97577 v 5.55181 q 0,0.57739 0.02221,1.39905 0.03331,0.62181 0.188761,0.84388 0.155451,0.22207 0.466352,0.36642 v 0.46635 h -3.44212 q -0.144347,-0.36642 -0.199865,-0.68843 -0.05552,-0.322 -0.08883,-0.73283 -0.655113,0.71063 -1.510091,1.21029 -1.021533,0.58849 -2.309552,0.58849 -1.643335,0 -2.720385,-0.9327 -1.065947,-0.94381 -1.065947,-2.66487 0,-2.23183 1.72106,-3.23115 0.943807,-0.54408 2.775903,-0.77725 z m 0.166554,-5.06324 z m -7.927979,-1.12147 h -3.16453 v -2.92025 h 3.16453 z m -4.685725,15.86706 q 0.266487,0.0222 0.377523,0.0222 0.111036,0.0111 0.199865,0.0111 0.466352,0 0.699528,-0.23317 0.244279,-0.22207 0.244279,-0.87719 v -13.29102 h 3.16453 v 13.34654 q 0,1.8321 -0.721735,2.70928 -0.721735,0.87719 -2.831421,0.87719 -0.144347,0 -0.433041,-0.0111 -0.27759,-0.0111 -0.699528,-0.0222 z m -5.80719,-14.71228 q 1.87651,0 3.064597,0.98822 1.19919,0.97712 1.19919,3.25336 v 8.15005 h -3.242255 v -7.3617 q 0,-0.95491 -0.255383,-1.46567 -0.466352,-0.93271 -1.776578,-0.93271 -1.610024,0 -2.209619,1.36575 -0.310901,0.72173 -0.310901,1.8432 v 6.55113 h -3.153427 v -12.08073 h 3.053494 v 1.76547 q 0.610699,-0.9327 1.154776,-1.34354 0.977118,-0.73283 2.476106,-0.73283 z m -1.16588,-0.0333 z m -8.605299,-1.12148 h -3.208944 v -2.92025 h 3.208944 z m -3.208944,1.44347 h 3.208944 v 12.10294 h -3.208944 z m -16.266795,-4.26379 h 3.586467 l 6.517821,11.42562 v -11.42562 h 3.186737 v 16.36673 h -3.419913 l -6.684375,-11.62548 v 11.62548 h -3.186737 z m 6.773204,-0.0333 z m -15.567267,4.0084 q 0.08883,0 0.144346,0.0111 0.06662,0 0.277591,0.0111 v 3.24226 q -0.299798,-0.0333 -0.532974,-0.0444 -0.233175,-0.0111 -0.377522,-0.0111 -1.909822,0 -2.564935,1.2436 -0.366419,0.69953 -0.366419,2.15411 v 5.78498 h -3.186737 v -12.10294 h 3.020182 v 2.10969 q 0.732839,-1.2103 1.276916,-1.65444 0.888289,-0.74394 2.309552,-0.74394 z m -15.0342919,10.1598 q 1.3879516,0 2.1318937,-0.98822 0.7439421,-0.98822 0.7439421,-2.80921 0,-1.821 -0.7439421,-2.79811 -0.7439421,-0.98823 -2.1318937,-0.98823 -1.3879517,0 -2.1429974,0.98823 -0.74394208,0.97711 -0.74394208,2.79811 0,1.82099 0.74394208,2.80921 0.7550457,0.98822 2.1429974,0.98822 z m 6.1958162,-3.79743 q 0,2.66486 -1.5322986,4.56358 -1.5322987,1.88762 -4.652414,1.88762 -3.12011535,0 -4.652414,-1.88762 -1.5322986,-1.89872 -1.5322986,-4.56358 0,-2.62046 1.5322986,-4.54138 1.53229865,-1.92093 4.652414,-1.92093 3.1201153,0 4.652414,1.92093 1.5322986,1.92092 1.5322986,4.54138 z m -6.1847126,-6.39568 z m -8.5497822,-4.10834 q 0.2997975,0 0.544077,0.0222 0.2442795,0.0111 0.6662168,0.0444 v 2.57604 q -0.2664867,-0.0333 -0.8993927,-0.0444 -0.6218023,-0.0222 -0.8660818,0.27759 -0.2331759,0.2887 -0.2331759,0.64401 0,0.35532 0,1.02154 h 2.0763757 v 2.23182 h -2.0763757 v 9.76008 h -3.1534262 v -9.76008 h -1.7654747 v -2.23182 h 1.7321639 v -0.77726 q 0,-1.94313 0.6551132,-2.67597 0.688424,-1.08815 3.3199804,-1.08815 z"
     transform="matrix(1.0086007,0,0,1.0086007,267.45229,-9.4582389)"
     inkscape:label="for NinjaOne"
     fill="#ffffff" /><path
     d="m 127.36929,9.111011 0.40656,-0.02419 a 3.4748848,3.4748848 0 0 1 3.45054,3.068323 l 0.0245,0.40656 v 24.3242 h 24.3242 a 3.4748848,3.4748848 0 0 1 3.45056,3.068322 l 0.0245,0.40656 a 3.4748848,3.4748848 0 0 1 -3.06833,3.450564 l -0.40654,0.02419 H 131.251 v 24.324194 a 3.4748848,3.4748848 0 0 1 -3.06832,3.45056 l -0.40656,0.0242 a 3.4748848,3.4748848 0 0 1 -3.45054,-3.06832 l -0.0245,-0.40656 V 43.835395 H 99.976875 a 3.4748848,3.4748848 0 0 1 -3.450549,-3.068322 l -0.02451,-0.406564 a 3.4748848,3.4748848 0 0 1 3.068325,-3.45056 l 0.406544,-0.02419 H 124.30088 V 12.561571 a 3.4748848,3.4748848 0 0 1 3.06833,-3.45056 l 0.40655,-0.02419 z"
     fill="#13d5e1"
     id="path419-3"
     inkscape:label="+"
     transform="translate(273.86555,-9.086821)" /></svg>