<?xml version="1.0" encoding="UTF-8" standalone="no"?>
<!-- Created with Inkscape (http://www.inkscape.org/) -->

<svg
   width="24"
   height="24"
   viewBox="0 0 6.3499999 6.35"
   version="1.1"
   id="svg2467"
   inkscape:version="1.2 (dc2aedaf03, 2022-05-15)"
   sodipodi:docname="triggerFunction.svg"
   xmlns:inkscape="http://www.inkscape.org/namespaces/inkscape"
   xmlns:sodipodi="http://sodipodi.sourceforge.net/DTD/sodipodi-0.dtd"
   xmlns="http://www.w3.org/2000/svg"
   xmlns:svg="http://www.w3.org/2000/svg">
  <sodipodi:namedview
     id="namedview2469"
     pagecolor="#505050"
     bordercolor="#ffffff"
     borderopacity="1"
     inkscape:showpageshadow="0"
     inkscape:pageopacity="0"
     inkscape:pagecheckerboard="1"
     inkscape:deskcolor="#505050"
     inkscape:document-units="mm"
     showgrid="false"
     inkscape:zoom="5.9081369"
     inkscape:cx="-18.025987"
     inkscape:cy="24.711682"
     inkscape:window-width="1920"
     inkscape:window-height="1009"
     inkscape:window-x="1912"
     inkscape:window-y="-8"
     inkscape:window-maximized="1"
     inkscape:current-layer="svg2467" />
  <defs
     id="defs2464" />
  <path
     id="path5809"
     d="m 25,19 c -2.2,0 -4,-1.8 -4,-4 0,-2.2 1.8,-4 4,-4 2.2,0 4,1.8 4,4 0,2.2 -1.8,4 -4,4 z M 14,43 C 8.5,43 4,38.5 4,33 4,28.4 7.1,24.5 11.5,23.3 l 1,3.9 C 9.9,27.9 8,30.3 8,33 c 0,3.3 2.7,6 6,6 3.3,0 6,-2.7 6,-6 v -2 h 15 v 4 H 23.8 c -0.9,4.6 -5,8 -9.8,8 z m 21,0 c -3,0 -5.9,-1.4 -7.8,-3.7 l 3.1,-2.5 c 1.1,1.4 2.9,2.3 4.7,2.3 3.3,0 6,-2.7 6,-6 0,-3.3 -2.7,-6 -6,-6 -1,0 -2,0.3 -2.9,0.7 l -1.7,1 -7.1,-12.8 3.5,-1.9 5.3,9.4 c 1,-0.3 2,-0.5 3,-0.5 5.5,0 10,4.5 10,10 0,5.5 -4.6,10 -10.1,10 z m 0,-6 c -2.2,0 -4,-1.8 -4,-4 0,-2.2 1.8,-4 4,-4 2.2,0 4,1.8 4,4 0,2.2 -1.8,4 -4,4 z"
     transform="matrix(0.15450122,0,0,0.15450122,-0.61800494,-0.53302929)"
     fill="#2b3749" />
  <path
     id="path5811"
     d="m 15.7,34 -3.4,-2 5.9,-9.7 C 16.2,20.4 15,17.8 15,15 15,9.5 19.5,5 25,5 c 5.5,0 10,4.5 10,10 0,0.9 -0.1,1.7 -0.3,2.5 l -3.9,-1 C 30.9,16 31,15.5 31,15 31,11.7 28.3,9 25,9 c -3.3,0 -6,2.7 -6,6 0,2.1 1.1,4 2.9,5.1 l 1.7,1 z M 14,37 c -2.2,0 -4,-1.8 -4,-4 0,-2.2 1.8,-4 4,-4 2.2,0 4,1.8 4,4 0,2.2 -1.8,4 -4,4 z"
     transform="matrix(0.15450122,0,0,0.15450122,-0.61800494,-0.53302929)"
     fill="#13d5e1" />
</svg>
